# xmcd CD database file
# Copyright (C) 1995-1998 Ti Kan
#
# Track frame offsets:
#	182
#	19430
#	34967
#	50815
#	68465
#	92235
#	107310
#	128635
#	147030
#	167232
#	183897
#	201710
#	221690
#	241495
#	259257
#	273722
#
# Disc length: 3925 seconds
#
# Revision: 34485420
# Submitted via:  AdeptDE 1.0
#
DISCID=f60f5310
DTITLE=Various Artists / Strip Jointz-Hot Songs For Sexy Dancers
TTITLE0=R Kelly / Bump N' Grind
TTITLE1=Rick James / Super Freak
TTITLE2=Commodores / Brick House
TTITLE3=Adventures of Stevie / Dirty Cash
TTITLE4=Lil Louis / French Kiss
TTITLE5=The Outhere Brothers / Boom Boom Boom
TTITLE6=Whodidi / Freaks Come Out At Night
TTITLE7=2 In A Room / Wiggle It
TTITLE8=H-Town / Knockin' Da Boots
TTITLE9=Samantha Fox / Touch Me (I Want Your Body)
TTITLE10=Wreckx-N-Effect / Rump Shaker
TTITLE11=2 Live Crew / Me So Horny
TTITLE12=Tone Loc / Wild Thing
TTITLE13=Labelle / Lady Marmalade
TTITLE14=B.T. Express / Do It ('Til Your Satisfied)
TTITLE15=Clarence Carther / Strokin'
EXTD=DISC: 1\nUPC: 768697500226\nLABEL: Robbins\nENSORECORD: 110942\n\nYEAR:
EXTD= 2000  ID3G:  17
EXTT0=PERFORMER: R Kelly\n
EXTT1=PERFORMER: Rick James\n
EXTT2=PERFORMER: Commodores\n
EXTT3=PERFORMER: Adventures Of Stevie V\n
EXTT4=PERFORMER: Lil Louis\n
EXTT5=PERFORMER: The Outhere Brothers\n
EXTT6=PERFORMER: Whodini\n
EXTT7=PERFORMER: 2 In A Room\n
EXTT8=PERFORMER: H-Town\n
EXTT9=PERFORMER: Samantha Fox\n
EXTT10=PERFORMER: Wreckx-N-Effect\n
EXTT11=PERFORMER: 2 Live Crew\n
EXTT12=PERFORMER: Tone Loc\n
EXTT13=PERFORMER: Labelle\n
EXTT14=PERFORMER: B.T. Express\n
EXTT15=PERFORMER: Clarence Carter\n
PLAYORDER=
